<svg xmlns="http://www.w3.org/2000/svg" viewBox="0 0 286.966 54.057">
  <defs>
    <style>
      .cls-1 {
        fill: #fff;
      }
    </style>
  </defs>
  <g id="hunter-logo-white" transform="translate(-140 -123.418)">
    <path id="Path_1" data-name="Path 1" class="cls-1" d="M30.062.1V18.027H15.445V.1H0V53.053H15.445V32.506H30.062V53.053H45.644V.1Z" transform="translate(140 123.456)"/>
    <path id="Path_2" data-name="Path 2" class="cls-1" d="M110.1.1V14.028h13.79V53.053h15.582V14.028h13.79V.1Z" transform="translate(181.726 123.456)"/>
    <path id="Path_3" data-name="Path 3" class="cls-1" d="M144.3.1V53.053h39.439V40.642H159.882V32.368h19.444V19.957H159.882V12.373h22.891V.1Z" transform="translate(194.687 123.456)"/>
    <path id="Path_4" data-name="Path 4" class="cls-1" d="M191.12,12.335h7.309c3.585,0,6.205,1.793,6.205,5.516s-2.62,4.964-7.309,4.964h-6.068V12.335Zm4.689,22.2c7.309,0,8.274,2.206,8.274,9.239a38.435,38.435,0,0,0,.827,9.377h15.583V51.5c-1.793,0-1.655-2.344-1.655-9.239,0-10.618-3.034-12-8-14.066,5.516-1.655,7.86-6.757,7.86-12.962C218.7,5.026,213.6.2,197.739.2H175.4V53.153h15.445V34.537Z" transform="translate(206.473 123.494)"/>
    <path id="Path_5" data-name="Path 5" class="cls-1" d="M66.705.138V32.13c-.138,5.516-1.793,9.239-7.309,9.239-6.343,0-7.309-4.413-7.309-9.653V0H36.506V29.786a32.936,32.936,0,0,0,1.379,11.17c4.137,13.514,16.548,13.1,17.927,13.1a20.654,20.654,0,0,0,3.034-.276,4.876,4.876,0,0,0,.827-.138c.552,0,3.172-.552,7.033-3.585v3.172H82.15V.138Z" transform="translate(153.827 123.418)"/>
    <path id="Path_6" data-name="Path 6" class="cls-1" d="M104.727.1V28.921h.552L88.593.238V.1H73.7V53.053H88.593V24.37L105,53.053h14.479V.1Z" transform="translate(167.931 123.456)"/>
  </g>
</svg>
